<?xml version="1.0" standalone="no"?>
<!DOCTYPE svg PUBLIC "-//W3C//DTD SVG 1.1//EN" "http://www.w3.org/Graphics/SVG/1.1/DTD/svg11.dtd">
<svg xmlns="http://www.w3.org/2000/svg" id="Calque_1" data-name="Calque 1" viewBox="0 0 242.75 484.11" width="242.75" height="484.1099853515625">
  <defs>
    <style>
      .cls-1 {
        fill: #f7c328;
      }
    </style>
  </defs>
  <path class="cls-1" d="M118.72,411.28l-13.8-6.22,34.73-71.21c-4.23-18.01-18.22-77.59-22.54-96L0,281.99l3.05,77.48,26.03,78.72,94.59,45.92,96.77-110.57L185.45,55.51c4.68-2.36,10.17-6.38,13.26-.86,6.55,14.36,20.96,49.91,27.08,63.9,1.39,3.77,4.4,6.14,8.45,6.31,3.34.1,7.7.03,8.52-3.45-1.2-20.11-9.42-96.19-11.12-116.17-.17-1.65-.29-3.33-1.39-4.32-2.32-1.39-5.55-.8-8.33-.83-9.13.48-22.98.9-32.54,1.52-4.65.2-7.84,1.47-11.37,4.68-16.18,13.37-45.15,37.45-57.26,47.49-1.97,1.69-3.99,3.23-4.82,5.67-1.11,4.1-.53,8.16-.44,13.3.38,7.06.33,14.65,1.12,21.63.43,6.68,6.79,8.97,11.91,12.03,8.57,4.85,18.26,10.34,26.7,15.11,6,3.44,11.17,5.56,9.58,11.97-.63,3.33-2.34,8.3-3.8,12.27-1.71,5.12-4.88,9.55-10.57,10.21-6.57,1.56-17.41-.89-20.1,5.53-1.2,3.57-.57,7.89.36,11.51,1.17,4.47,3.97,6.98,8.63,7.41,5.48.87,13.14-1.54,16.86,3.63,1.37,2.09,1.91,4.81,2.47,7.35,1.08,5.41,2.5,12.8,3.52,18.26.46,3.4,2.37,9.64-3,9.39-5.13,0-11.78-3.91-16.93-2.24-3.89,2.13-2.58,8.97-2.58,13.91.08,1.39.2,2.82.4,4.16,1.64,15.18,20.75,1.61,24.34,15.55,1.1,4.83-2.76,9.46-7.21,10.69-1.78.64-3.5,1.14-4.61,2.22-1.98,1.89-1.49,5.16-1.3,7.8,1.7,16.92,4.36,43.71,5.97,59.65l-38.53,80.52ZM47.22,339.99l-14.18-44.41,64.87-17.59c.74,5.64.98,10.72-1.03,16.02-3.14,9.23-7.72,22.19-10.85,31.49l-38.8,14.49Z"/>
</svg>